<svg xmlns="http://www.w3.org/2000/svg" viewBox="0 0 430 430">
  <defs>
    <style>
      .cls-1 {
        isolation: isolate;
      }

      .cls-2, .cls-3 {
        fill: #b26836;
      }

      .cls-10, .cls-11, .cls-13, .cls-15, .cls-3, .cls-6 {
        mix-blend-mode: multiply;
        opacity: 0.5;
      }

      .cls-4 {
        fill: #646e78;
      }

      .cls-5, .cls-6 {
        fill: #f28ba8;
      }

      .cls-11, .cls-7 {
        fill: #f9c9c0;
      }

      .cls-8 {
        fill: #92140c;
      }

      .cls-10, .cls-9 {
        fill: #4bb3fd;
      }

      .cls-12, .cls-13 {
        fill: #ffc738;
      }

      .cls-14, .cls-15 {
        fill: #f24c00;
      }

      .cls-16 {
        fill: #3a3347;
      }

      .cls-17 {
        fill: #ebe6ef;
      }

      .cls-18 {
        fill: #121331;
      }
    </style>
  </defs>
  <g class="cls-1">
    <g id="Warstwa_1" data-name="Warstwa 1">
      <g>
        <g>
          <path class="cls-2" d="M347.86,153.7v22.16a44.54,44.54,0,0,1-21.66,38.22v13.76c0,.09,0,.19,0,.3s0,0,0,0,0,0,0,0h8.35a58.19,58.19,0,0,1,10,.87,37.71,37.71,0,0,1-37.22,31.69h-9.07a37.7,37.7,0,0,1-37.19-31.55h0a56.45,56.45,0,0,1,10.71-1h6.53s0,0,0,0,0,0,0,0,0-.21,0-.3V213.46a44.5,44.5,0,0,1-20.66-37.6V154c53.82-12.19,62.54-44.54,62.54-44.54,24.53,12.79,27.38,34.84,27.64,41.95C347.91,152.87,347.86,153.7,347.86,153.7Z"/>
          <path class="cls-3" d="M323.78,215.64c-.44.23-.88.45-1.32.65-.89.42-1.79.81-2.71,1.18l-1.39.52a45.73,45.73,0,0,1-6.62,1.77,44.45,44.45,0,0,1-15.58-6.16h0a44.6,44.6,0,0,1-20.71-37.69V148.73A134.12,134.12,0,0,1,257.68,154V175.9a44.6,44.6,0,0,0,20.71,37.69h0v14.76h-6.55a56.58,56.58,0,0,0-10.73,1h0c.06.36.13.7.19,1.05s.16.8.25,1.2.15.62.23.92a2.76,2.76,0,0,0,.08.27c.12.5.26,1,.41,1.48l.09.31.12.33c.07.23.14.45.22.67h0c.12.33.23.66.36,1s.25.65.39,1c-.1-.24-.19-.47-.28-.71.09.24.18.47.28.71h0c.33.81.69,1.61,1.09,2.4a48.26,48.26,0,0,1,13.7-3.6,118.21,118.21,0,0,0,23-3.23c9.16-2.31,20.25-6.71,25.13-14.9v-4.07C325.51,214.71,324.65,215.19,323.78,215.64Z"/>
          <path class="cls-4" d="M368.22,208.6c0-.57-.07-1.15-.1-1.73l0-.38c0-.42,0-.83-.07-1.24-.13-2-.27-4-.44-6-.12-1.53-.26-3.07-.4-4.61-.12-1.34-.26-2.7-.4-4.06s-.26-2.48-.4-3.74c0-.26-.05-.53-.09-.8q-.19-1.81-.42-3.63a.43.43,0,0,0,0-.12c-.19-1.62-.4-3.23-.61-4.86-.19-1.44-.38-2.86-.58-4.31-.13-.89-.25-1.76-.38-2.64-.55-3.87-1.17-7.79-1.81-11.75l-.45-2.68c-.53-3.19-1.1-6.4-1.69-9.63-2.2-12.49-5.25-22.76-9.68-30.9h0a47.41,47.41,0,0,0-7.24-10.1c-8.61-9-20.78-13.51-38.27-13.64A54.07,54.07,0,0,0,293,93.09a45.62,45.62,0,0,0-13,5.08A46.24,46.24,0,0,0,275.7,101a52.37,52.37,0,0,0-9.46,9.11,71,71,0,0,0-8.27,13h0c-7.86,15.8-12.43,37.3-13.73,63.87q-.44,3.84-.79,7.5c-.16,1.63-.31,3.24-.45,4.82-.26,3-.48,6-.66,8.89q-.06,1-.12,2c-.05,1-.1,2-.16,3-.06,1.5-.12,3-.16,4.5,0,.74-1.37,2.08-1.38,2.82,0,.46,0,.91,0,1.37s0,.76,0,1.14c0,.65,0,1.31,0,2,0,2.58,0,5.16.1,7.78,0,1.46,0,3.2.1,4.69A68.19,68.19,0,0,1,257.56,230h0c1.16-.29,2.33-.55,3.52-.78h0a56.37,56.37,0,0,1,10.71-1h6.53V213.46a44.63,44.63,0,0,1-20.67-37.6V154a127.72,127.72,0,0,0,24-7.83h0a97.49,97.49,0,0,0,9.66-4.94c.85-.5,1.69-1,2.48-1.51l.47-.3c.35-.21.69-.44,1-.67,2.1-1.38,4-2.79,5.82-4.2a.4.4,0,0,1,.12-.1,1.64,1.64,0,0,0,.25-.21c.29-.22.57-.44.84-.67,1.39-1.15,2.67-2.29,3.86-3.42h0c11.38-10.86,14-20.69,14-20.69,24.54,12.8,27.39,34.85,27.65,42v24.45a44.54,44.54,0,0,1-21.66,38.22V228.2h8.35a57.15,57.15,0,0,1,33.68,11q.11-1.62.18-3.27c0-.55.05-1.09.08-1.65q.19-4.84.19-9.91C368.67,219.23,368.52,214,368.22,208.6Z"/>
          <path class="cls-5" d="M391.82,285.48v22.93a11.15,11.15,0,0,1-11.15,11.14H364.86c-10.7.85-17.57,2.85-22.74,5-7.79,3.22-11.73,6.77-19.16,7.2q-.46,0-1,0h-.55a.93.93,0,0,1-.24,0H283.33c-13.69,0-15.5-10.07-43.51-12.25H225.69a11.13,11.13,0,0,1-11.15-11.14V285.48c0-.48,0-1,0-1.46,0-.29,0-.57,0-.85s0-.39,0-.58c0-.72.09-1.43.15-2.14,0-.25.05-.48.06-.72.09-.83.19-1.66.31-2.48,0-.29.08-.57.13-.84.07-.49.16-1,.23-1.45.06-.27.11-.55.17-.83s.13-.61.2-.91c0,0,0-.05,0-.09.08-.37.16-.73.25-1.09.13-.52.26-1,.4-1.53.06-.25.12-.49.2-.73.18-.65.38-1.29.59-1.94l.22-.7c.06-.15.11-.3.16-.45s.13-.37.2-.55.22-.6.32-.89.21-.55.32-.82c.17-.44.36-.87.53-1.29s.35-.84.55-1.26a54.2,54.2,0,0,1,2.56-5c.28-.49.56-1,.85-1.45l.92-1.44.33-.49c.22-.33.44-.65.67-1a3.3,3.3,0,0,1,.22-.3c.27-.38.53-.74.8-1.1a3.07,3.07,0,0,1,.27-.36c.26-.35.53-.69.8-1a2.34,2.34,0,0,1,.25-.3c.29-.38.61-.75.92-1.11.07-.09.16-.18.24-.29.73-.85,1.49-1.67,2.27-2.48a3,3,0,0,1,.25-.25c.26-.27.52-.53.79-.78s.36-.36.53-.53.4-.38.61-.56.5-.47.75-.7c1.12-1,2.26-2,3.45-2.85.32-.23.63-.47.95-.69l.6-.45c.19-.15.4-.28.6-.41l1.25-.86,1.52-1a56.85,56.85,0,0,1,19.08-7.34l.18,1c.08.39.16.8.25,1.19s.15.62.23.93c.18.68.36,1.36.58,2s.44,1.35.7,2c.11.33.25.66.38,1a37.8,37.8,0,0,0,34.88,23.34h9a37.47,37.47,0,0,0,11-1.62l1.2-.39.8-.28c.27-.09.52-.19.77-.29l.37-.14a38.11,38.11,0,0,0,5.87-3l0,0,.65-.42.48-.32c.83-.57,1.64-1.16,2.42-1.79a37.62,37.62,0,0,0,13.67-23.42A57.32,57.32,0,0,1,390.85,275,57.9,57.9,0,0,1,391.82,285.48Z"/>
          <path class="cls-6" d="M261.09,229.36A57.33,57.33,0,0,0,242,236.72c-.51.32-1,.64-1.53,1s-.84.56-1.25.86a7.11,7.11,0,0,0-.6.41c-.21.14-.4.28-.61.44l-.94.7q-1.78,1.36-3.45,2.86a2.1,2.1,0,0,0-.27.24l-.24.22-.26.23-.6.56-.54.53-.4.4q-.18.2-.39.39l-.13.13a.74.74,0,0,1-.12.13c-.79.81-1.54,1.63-2.28,2.49l-.24.29-.46.54h0q-.21.27-.45.54h0c-.09.1-.17.21-.25.31-.27.34-.54.68-.8,1a4.22,4.22,0,0,0-.27.36l-.22.29-.37.51-.21.3a2.44,2.44,0,0,0-.22.31c-.14.18-.27.37-.4.57s-.18.27-.28.4l-.32.49c-.31.47-.62,1-.92,1.44a3.62,3.62,0,0,1-.2.33c-.16.26-.31.52-.46.78l-.2.34c-.94,1.62-1.79,3.28-2.57,5-.18.42-.37.84-.54,1.25l-.54,1.3c-.1.27-.21.54-.31.82-.18.48-.35,1-.52,1.44l-.16.45c-.08.24-.16.48-.23.72-.21.64-.41,1.28-.59,1.93-.07.24-.14.49-.2.73-.15.51-.27,1-.39,1.54-.1.36-.18.72-.26,1.09a.29.29,0,0,1,0,.09l0,.16-.13.59a.76.76,0,0,1,0,.16c-.06.28-.11.56-.16.84-.09.47-.17,1-.25,1.44,0,.28-.09.56-.12.85-.13.82-.22,1.65-.31,2.48l-.06.72c-.07.71-.12,1.43-.15,2.14l0,.59c0,.28,0,.56,0,.85,0,.49,0,1,0,1.47v23a11.14,11.14,0,0,0,2.21,6.69c.22.28.45.55.68.82s.24.26.38.39a12.12,12.12,0,0,0,1.65,1.37l.92.56c.32.16.64.32,1,.47a11.22,11.22,0,0,0,4.35.87h14.17l1.05.09,1,.09c-.71-5.17-1.36-11.24-1.7-17.65A131.73,131.73,0,0,1,241.42,274c1.74-10.21,5-18.24,9.69-23.86a24.6,24.6,0,0,1,6.06-6,37.11,37.11,0,0,1,7.35-4.15c-.4-.79-.76-1.58-1.09-2.4h0c-.1-.23-.19-.47-.28-.71l-.11-.27c-.13-.34-.24-.67-.36-1h0c-.08-.22-.16-.44-.22-.67l-.12-.33-.09-.31c-.16-.49-.29-1-.41-1.47,0-.1-.06-.19-.08-.28-.08-.3-.16-.61-.23-.92s-.17-.79-.25-1.2-.13-.69-.19-1Z"/>
        </g>
        <g>
          <path class="cls-7" d="M172,154.82v22.24a44.71,44.71,0,0,1-21.74,38.37v13.81c0,.09,0,.19,0,.3v0a.09.09,0,0,1,0,.05h8.38a57.67,57.67,0,0,1,10.07.87,37.85,37.85,0,0,1-37.36,31.81h-9.1a37.85,37.85,0,0,1-37.34-31.67h0a56.06,56.06,0,0,1,10.75-1h6.56a.09.09,0,0,1,0-.05v0c0-.11,0-.21,0-.3V214.81a44.66,44.66,0,0,1-20.74-37.75V155.13c54-12.23,62.78-44.71,62.78-44.71,24.63,12.84,27.49,35,27.74,42.11A22.58,22.58,0,0,1,172,154.82Z"/>
          <path class="cls-8" d="M192.45,209.93c0-.57-.07-1.16-.1-1.73l0-.39c0-.42,0-.83-.07-1.24-.13-2-.27-4-.44-6-.12-1.53-.26-3.07-.4-4.63-.12-1.35-.26-2.7-.4-4.08s-.26-2.48-.41-3.74c0-.27,0-.54-.09-.8-.13-1.22-.27-2.43-.42-3.65a.5.5,0,0,0,0-.12c-.19-1.63-.4-3.25-.61-4.89-.19-1.43-.38-2.87-.59-4.32-.12-.88-.25-1.76-.37-2.65-.56-3.88-1.17-7.82-1.82-11.79-.15-.89-.3-1.8-.45-2.7-.53-3.2-1.1-6.42-1.69-9.66-2.22-12.53-5.28-22.85-9.72-31h0a47.37,47.37,0,0,0-7.27-10.13c-8.65-9.08-20.86-13.57-38.42-13.7-21.38,0-37.13,10.93-47.34,31.41h0C73.89,139.94,69.31,161.53,68,188.2q-.44,3.86-.79,7.53-.24,2.45-.45,4.83c-.27,3-.49,6-.67,8.93,0,.66-.08,1.31-.11,2-.06,1-.12,2-.16,3-.07,1.51-.13,3-.18,4.51,0,.75,0,1.5,0,2.24s0,1.68,0,2.52c0,.66,0,1.32,0,2,0,4,0,8.1.24,12.27a56.92,56.92,0,0,1,19.14-7.37h0a56.06,56.06,0,0,1,10.75-1h6.56V214.82h0a44.66,44.66,0,0,1-20.74-37.75V155.13c54-12.23,62.78-44.71,62.78-44.71,24.63,12.84,27.49,35,27.74,42.11v24.53a44.71,44.71,0,0,1-21.74,38.37v14.18h8.38a57.12,57.12,0,0,1,33.81,11c.07-1.08.13-2.17.19-3.27,0-.56.05-1.11.07-1.66.14-3.25.2-6.56.2-9.94Q192.9,218,192.45,209.93Z"/>
          <path class="cls-9" d="M216.14,287.11v23A11.19,11.19,0,0,1,205,321.31H189.08c-28,2.19-29.77,10.93-43.51,10.93a1,1,0,0,1-.24,0h-38c-13.74,0-15.62-8.76-43.73-10.95H49.38a11.2,11.2,0,0,1-11.2-11.19v-23q0-.75,0-1.47c0-.29,0-.57,0-.85l0-.6c0-.71.08-1.43.14-2.14,0-.24.05-.48.07-.72.09-.84.18-1.67.31-2.49,0-.29.08-.57.13-.85.07-.48.15-1,.24-1.45.05-.28.1-.55.16-.83s.13-.61.19-.92a.24.24,0,0,0,0-.08c.08-.37.17-.74.26-1.1s.25-1,.39-1.54c.06-.24.13-.48.21-.73.18-.65.37-1.29.58-1.94.08-.23.16-.47.23-.71l.16-.45c.17-.49.35-1,.53-1.45.1-.28.2-.55.31-.82.17-.44.35-.87.54-1.3s.35-.83.54-1.25c.78-1.71,1.63-3.38,2.57-5,.28-.49.57-1,.87-1.45s.6-1,.91-1.45c.11-.17.22-.32.33-.48.22-.34.45-.66.67-1,.07-.11.15-.21.22-.31l.81-1.1a4.22,4.22,0,0,1,.27-.36c.26-.35.53-.69.8-1A3.76,3.76,0,0,1,51,251l.92-1.11.24-.29c.74-.85,1.5-1.68,2.29-2.49.08-.08.16-.17.25-.25.25-.27.52-.53.79-.79l.54-.53.6-.56c.25-.24.51-.47.77-.7q1.66-1.5,3.45-2.86c.31-.24.63-.47,1-.7s.4-.3.61-.44.4-.29.6-.42c.41-.29.83-.58,1.25-.85s1-.66,1.54-1a56.92,56.92,0,0,1,19.14-7.37c.06.35.12.7.19,1s.16.8.25,1.2.14.62.23.92c.17.7.36,1.38.58,2.06s.44,1.35.7,2c.12.34.25.67.38,1a37.88,37.88,0,0,0,35,23.43h9.1a37.85,37.85,0,0,0,37.36-31.81,57.55,57.55,0,0,1,46.46,46.06A58.37,58.37,0,0,1,216.14,287.11Z"/>
          <path class="cls-10" d="M84.91,230.61A56.92,56.92,0,0,0,65.77,238c-.52.32-1,.63-1.54,1s-.84.56-1.25.85c-.2.13-.41.27-.6.42s-.4.28-.61.44-.64.46-1,.71q-1.78,1.35-3.45,2.85a2.16,2.16,0,0,0-.27.25l-.24.22-.26.23-.6.56-.54.53c-.14.13-.28.27-.4.4l-.39.39a1.59,1.59,0,0,0-.13.13l-.12.13c-.79.81-1.55,1.64-2.29,2.49l-.24.29c-.15.18-.3.37-.46.55h0q-.21.27-.45.54h0a3.76,3.76,0,0,0-.25.31c-.27.34-.54.68-.8,1a4.22,4.22,0,0,0-.27.36l-.22.29-.37.51-.22.3c-.07.1-.15.2-.22.31l-.4.57L48,255c-.11.16-.22.31-.33.48-.31.48-.62,1-.91,1.45l-.21.33c-.16.26-.31.52-.46.78l-.2.34c-.94,1.62-1.79,3.29-2.57,5-.19.42-.37.84-.54,1.25s-.37.86-.54,1.3c-.11.27-.21.54-.31.82-.18.48-.36,1-.53,1.45-.05.15-.1.3-.16.45s-.15.48-.23.71c-.21.65-.4,1.29-.58,1.94-.08.25-.15.49-.21.73-.14.51-.27,1-.39,1.54s-.18.73-.26,1.1a.24.24,0,0,1,0,.08l0,.16c0,.2-.09.4-.13.6a.9.9,0,0,1,0,.16c-.06.28-.11.55-.16.83-.09.48-.17,1-.24,1.45,0,.28-.1.56-.13.85-.13.82-.22,1.65-.31,2.49,0,.24,0,.48-.07.72-.06.71-.11,1.43-.14,2.14l0,.6c0,.28,0,.56,0,.85q0,.72,0,1.47v23a11.14,11.14,0,0,0,2.23,6.7c.22.28.44.55.68.82a4.36,4.36,0,0,0,.37.38,11.58,11.58,0,0,0,1.66,1.38L44,320c.32.16.64.32,1,.47a11.27,11.27,0,0,0,4.36.87H63.57l1.05.09,1,.1C65,316.3,64.3,310.22,64,303.8a131.39,131.39,0,0,1,1.26-28.49c1.73-10.23,5-18.27,9.7-23.91a25,25,0,0,1,6.07-6,37.2,37.2,0,0,1,7.36-4.16c-.4-.79-.76-1.58-1.1-2.4h0l-.27-.71c0-.09-.07-.19-.11-.28-.13-.33-.24-.66-.36-1h0c-.07-.22-.15-.44-.22-.67s-.07-.22-.11-.34l-.09-.31c-.16-.49-.3-1-.42-1.47,0-.1-.05-.19-.07-.28-.09-.3-.16-.61-.23-.92s-.18-.8-.25-1.2-.13-.7-.19-1Z"/>
          <path class="cls-11" d="M147.7,216.86c-.44.23-.88.45-1.33.66-.88.41-1.79.81-2.71,1.17-.46.18-.93.36-1.39.52a44.64,44.64,0,0,1-6.63,1.78A44.7,44.7,0,0,1,120,214.82h0a44.66,44.66,0,0,1-20.74-37.75V149.85a136.14,136.14,0,0,1-17.8,5.28v21.93a44.66,44.66,0,0,0,20.74,37.75h0v14.79H95.68a56.06,56.06,0,0,0-10.75,1h0c.06.36.12.71.19,1.06s.16.8.25,1.2.14.62.23.92a2.68,2.68,0,0,0,.07.27c.12.5.27,1,.42,1.48l.09.31c0,.12.08.22.11.34l.23.66s0,0,0,0c.12.33.23.67.36,1s.25.66.38,1l-.27-.72c.09.25.18.48.28.72h0c.34.82.7,1.62,1.1,2.41a48.49,48.49,0,0,1,13.73-3.6,118.13,118.13,0,0,0,23-3.24c9.18-2.31,20.29-6.73,25.17-14.93v-4.07C149.43,215.93,148.57,216.41,147.7,216.86Z"/>
        </g>
        <g>
          <path class="cls-12" d="M264.88,155.53V180.1a49.41,49.41,0,0,1-24,42.4h0v15.65a25.19,25.19,0,0,1-25.53,25.13h-2A25.37,25.37,0,0,1,189.38,247a25,25,0,0,1-1.59-8.83V221.82h0c-.85-.55-1.7-1.11-2.52-1.71h0c-.82-.59-1.61-1.22-2.4-1.86s-1.55-1.32-2.3-2l-1.09-1.06a49.26,49.26,0,0,1-11-16.45c-.24-.6-.48-1.22-.69-1.83s-.51-1.47-.74-2.22a49.27,49.27,0,0,1-2.19-14.55V155.88c2.73-.62,5.36-1.28,7.88-2l.19,0c1.62-.45,3.18-.92,4.72-1.41.8-.24,1.58-.5,2.36-.77,1.55-.51,3.06-1.06,4.52-1.61,42.24-15.9,49.69-43.57,49.69-43.57,27.22,14.19,30.37,38.64,30.66,46.53C264.94,154.6,264.88,155.53,264.88,155.53Z"/>
          <path class="cls-13" d="M240.85,222.5h0l-1.39.81-1.44.77c-.49.25-1,.49-1.46.72-1.48.69-3,1.31-4.54,1.88-.52.18-1,.36-1.57.52s-.91.28-1.37.41l-.29.08c-.51.14-1,.28-1.53.4s-1.09.26-1.63.37l-.95.18a49.2,49.2,0,0,1-17.23-6.81h0a49.35,49.35,0,0,1-22.92-41.71V150a149,149,0,0,1-19.67,5.84v24.23a49.35,49.35,0,0,0,22.92,41.71h0v16.33h0a25,25,0,0,0,1.59,8.83,131.86,131.86,0,0,0,23.67-3.5c10.14-2.56,22.4-7.42,27.8-16.48V222.5Z"/>
          <path class="cls-14" d="M313.63,301.68v25.43a12.36,12.36,0,0,1-12.36,12.36H283.73c-15.43,1.22-23.68,4.6-30,7.68S243.18,353,235.59,353H193.31c-15.18,0-17.19-11.15-48.25-13.57H129.38A12.36,12.36,0,0,1,117,327.11V301.68a63.52,63.52,0,0,1,63.52-63.53h7.25a25.19,25.19,0,0,0,25.52,25.13h2a25.19,25.19,0,0,0,25.53-25.13h9.25A63.53,63.53,0,0,1,313.63,301.68Z"/>
          <path class="cls-15" d="M189.38,247a25,25,0,0,1-1.59-8.83h-7.24c-1,0-2,0-3,.07s-2,.11-3,.21l-1.48.16c-.5.05-1,.11-1.48.19-1,.13-1.92.28-2.87.46h-.1a63.18,63.18,0,0,0-21.12,8.14c-.57.35-1.14.7-1.69,1.07s-.93.62-1.39,1c-.22.14-.44.29-.66.46s-.45.31-.67.48-.71.51-1,.78c-1.31,1-2.59,2-3.82,3.16a3.71,3.71,0,0,0-.29.27l-.27.24c-.1.08-.19.18-.28.26s-.45.41-.67.62l-.6.59-.44.43-.43.44a.93.93,0,0,0-.14.14l-.14.14c-.87.9-1.71,1.81-2.52,2.76l-.27.32q-.24.3-.51.6h0l-.49.6h0c-.1.11-.19.23-.28.34-.3.38-.6.76-.88,1.14-.11.13-.21.26-.31.4l-.24.32c-.13.19-.28.37-.41.56l-.23.33c-.09.11-.17.23-.25.34s-.3.42-.44.64l-.3.45a6.18,6.18,0,0,0-.36.53c-.35.53-.69,1.06-1,1.6-.07.13-.15.24-.22.37-.18.28-.35.57-.51.86l-.22.37a60,60,0,0,0-2.84,5.53q-.31.69-.6,1.38c-.2.48-.41,1-.6,1.43-.12.31-.23.61-.34.92-.2.52-.4,1.05-.58,1.59l-.18.5c-.08.26-.17.53-.26.79-.22.71-.44,1.42-.64,2.14-.08.27-.16.54-.23.81-.16.56-.3,1.13-.43,1.7-.1.4-.19.8-.29,1.21,0,0,0,.06,0,.09a1.16,1.16,0,0,0,0,.18c-.05.22-.1.44-.14.66l0,.18c-.07.31-.13.61-.19.92l-.27,1.6c0,.31-.1.62-.14.94-.13.9-.24,1.82-.33,2.74,0,.27,0,.53-.08.8-.07.79-.12,1.58-.16,2.37l0,.65c0,.31,0,.62,0,.94,0,.54,0,1.08,0,1.63v25.42a12.33,12.33,0,0,0,2.45,7.4c.25.31.5.62.76.91.12.14.26.28.41.43a12.66,12.66,0,0,0,1.83,1.51c.33.22.67.43,1,.62s.71.36,1.08.52a12.41,12.41,0,0,0,4.81,1h15.68l1.17.1,1.14.1c-.78-5.72-1.5-12.44-1.88-19.54a145.56,145.56,0,0,1,1.38-31.48c1.92-11.3,5.52-20.18,10.72-26.41a27.64,27.64,0,0,1,6.71-6.61A41.84,41.84,0,0,1,172.4,251a54.57,54.57,0,0,1,15.21-4S188.27,247.05,189.38,247Z"/>
          <path class="cls-16" d="M264.88,155.53V153c-.29-7.89-3.44-32.34-30.66-46.53,0,0-9.67,35.89-69.36,49.41-1,.22-2.08.46-3.15.68,0,0-21.32-62.8,5.15-78.32a11.62,11.62,0,0,1,11,.21c4.09,2.61,8.19,6.87,10.77,9.08a10.12,10.12,0,0,0,7,2.42c3.54-.17,8.16-1.84,13.3-3.78,42.11-15.91,61.08,13,61.53,25.33C271.28,132.9,272.94,150.69,264.88,155.53Z"/>
          <g>
            <path class="cls-17" d="M241.66,306h0c0-8.17.83-14.8,1.87-14.8h.19c.44,0,1.92,1.08,4.85,4.1q7.86-7.68,15.73,0c2.93-3,4.41-4.09,4.85-4.1h.19c1,0,1.87,6.63,1.87,14.8h0v.91A13.07,13.07,0,0,1,258.14,320h-3.41a13.07,13.07,0,0,1-13.07-13.07v-1.81"/>
            <path class="cls-17" d="M258.14,323.47h-3.41a16.58,16.58,0,0,1-16.57-16.57v-2a87.49,87.49,0,0,1,.57-9.85c.35-2.77.94-7.4,4.8-7.4h.31c1,0,2.15.31,4.93,2.88,5-3.54,10.31-3.54,15.33,0,2.78-2.57,3.88-2.84,4.93-2.88h.31c3.86,0,4.45,4.63,4.8,7.4a92,92,0,0,1,.57,9.82v2A16.58,16.58,0,0,1,258.14,323.47Zm-13-18v1.4a9.58,9.58,0,0,0,9.57,9.57h3.41a9.58,9.58,0,0,0,9.57-9.57V306c0-3.73-.17-6.66-.38-8.79l-.51.53a3.53,3.53,0,0,1-5,.07c-3.9-3.82-6.93-3.82-10.83,0a3.49,3.49,0,0,1-2.5,1,3.45,3.45,0,0,1-2.46-1.06l-.52-.53C245.34,299.23,245.17,302,245.16,305.5Z"/>
          </g>
        </g>
        <path class="cls-18" d="M371.43,237.62c1.35-24.46-1.27-54.45-8-91.59-2.38-13.44-5.67-23.88-10-31.93a51,51,0,0,0-7.78-10.85c-9.43-9.9-22.38-14.58-40.77-14.71-13.27,0-24.72,4-34.1,11.93a40.57,40.57,0,0,0-13.63-15.1C248,79.3,232,74,208,83.07c-4.92,1.85-9.22,3.4-12.17,3.55A6.58,6.58,0,0,1,191.22,85c-.68-.59-1.54-1.38-2.44-2.21a65,65,0,0,0-8.65-7.11,15.14,15.14,0,0,0-14.62-.28c-6.94,4.07-10.94,10.88-13,18.88-6.73-2.46-14.54-3.7-23.8-3.77-22.36,0-39.27,11.17-50.25,33.21h0l0,0c-8,16.06-12.72,38-14.06,65.06-2.15,19.35-2.83,33.44-2.3,48a60.34,60.34,0,0,0-27.38,50.76v22.91a14.65,14.65,0,0,0,14.63,14.64h14c15.12,1.19,22.19,4.78,27.88,7.66,4.62,2.34,9,4.56,15.71,4.56h11a15.77,15.77,0,0,0,11.73,5.24h15.49c16.81,1.32,24.68,5.31,31,8.52,5.28,2.69,9.85,5,17.22,5h42.2c7.34,0,11.91-2.33,17.2-5,6.31-3.2,14.17-7.19,30.88-8.51H301a15.8,15.8,0,0,0,13.27-7.24h7c6.67,0,11-2.24,15.61-4.56,1-.53,2.11-1.07,3.27-1.62l.11-.06.88-.4.36-.17.81-.35.5-.22.87-.35.52-.21.86-.32.62-.23.87-.29c.24-.08.47-.17.72-.24l.9-.28.79-.24,1-.26.84-.23,1-.25.93-.22,1.06-.22,1-.21,1.12-.19L357,324l1.2-.17,1.19-.18,1.29-.15,1.26-.15,1.38-.12c.44,0,.86-.09,1.31-.12h15.63a14.65,14.65,0,0,0,14.64-14.64V285.56A61,61,0,0,0,371.43,237.62Zm-6.8-4.59a60.81,60.81,0,0,0-19.83-7.27h0a61.56,61.56,0,0,0-10.63-.93h-4.82v-8.7A48.32,48.32,0,0,0,351,176V155.56c3.37-3.21,4.23-8.42,4.16-15.24q.72,3.31,1.37,6.94C362.79,181.76,365.45,209.9,364.63,233Zm-127.37,5.18a22,22,0,0,1-21.94,21.42h-2a22,22,0,0,1-21.94-21.42v-.13a1,1,0,0,0,0-.17V227.73a52.35,52.35,0,0,0,22.9,5.24h1.2a52.36,52.36,0,0,0,21.79-4.72v10ZM215.47,226h-1.2a45.79,45.79,0,0,1-45.74-45.74v-21.7c47.48-11.48,63.16-36.91,67.61-46.94,21.92,13.21,24.85,33.5,25.17,40.82a3.5,3.5,0,0,0-.1.8v27A45.79,45.79,0,0,1,215.47,226Zm-110,4.29h0v-8.77A47.66,47.66,0,0,0,125.78,226h1.09A47.93,47.93,0,0,0,146.23,222v8.31a3.2,3.2,0,0,0,.07.7,3.5,3.5,0,0,0,3.44,2.87h8.33a54.55,54.55,0,0,1,9.41.82h0c1.07.19,2.14.43,3.19.68a66.81,66.81,0,0,0-41.9,24h-6.93A34,34,0,0,1,88.9,234.23a53.89,53.89,0,0,1,6.5-.4h6.53a3.5,3.5,0,0,0,3.5-3.5v-.06Zm63.26-2.5h0a61.54,61.54,0,0,0-10.62-.93h-4.83v-8.67a48.09,48.09,0,0,0,14-14.13,53,53,0,0,0,17.13,19.62v9.17A59.78,59.78,0,0,0,168.69,227.76Zm75.58-3.37a53.11,53.11,0,0,0,18.39-20.68,47.94,47.94,0,0,0,11.88,11.81v9.31h-3a60,60,0,0,0-11.18,1l-.19,0a59.87,59.87,0,0,0-15.87,5.39Zm23.94-44.16v-23a12.8,12.8,0,0,0,2.56-3c34.59-11.2,47-30.85,50.91-39.4,19.79,12.14,22.09,31.06,22.3,36.93V176a41,41,0,0,1-41,41h-1.09a40.93,40.93,0,0,1-21.82-6.26l-.18-.12a41,41,0,0,1-14-15A52.6,52.6,0,0,0,268.21,180.23Zm-13.79,54.38,1-.32,1.26-.39,1-.27,1.28-.34,1.06-.22,1.28-.28.13,0a52.69,52.69,0,0,1,10-.94H278a3.5,3.5,0,0,0,3.5-3.5v0h0s0,0,0,0v-8.72a48.09,48.09,0,0,0,20.35,4.5H303A48.1,48.1,0,0,0,322.35,220v8.3a.43.43,0,0,0,0,.05v0a3.5,3.5,0,0,0,3.5,3.5h8.33a54.49,54.49,0,0,1,5.83.31,34,34,0,0,1-33,25.22h-6.84a66.7,66.7,0,0,0-46.06-22.64ZM304.79,95.54c16.33.12,27.69,4.1,35.72,12.54a43,43,0,0,1,6.31,8.7c.16,4.39.45,8.62.72,12.38.17,2.46.34,4.88.46,7.18-3.45-9.73-10.82-21.55-26.51-29.73a3.51,3.51,0,0,0-5,2.18c-.07.25-7,23.49-42.8,36.94,1.29-7.36.91-17,.46-28q-.14-3.1-.25-6.33a20.14,20.14,0,0,0-.57-3.93C281.79,99.56,292.36,95.54,304.79,95.54ZM169.05,81.47a7.17,7.17,0,0,1,3.49-.79,7.32,7.32,0,0,1,3.81.93A60.36,60.36,0,0,1,184,88c1,.89,1.87,1.73,2.66,2.41a13.54,13.54,0,0,0,9.45,3.25c4-.2,8.63-1.85,14.3-4,21.29-8.05,35-3.58,42.77,1.58,9.69,6.44,13.55,16,13.71,20.47.08,2.16.17,4.29.25,6.37.39,9.33.76,18.36-.08,24.91-2.52-11.54-9.9-28.43-31.15-39.51a3.51,3.51,0,0,0-5,2.18c-.09.34-10.06,33.89-66.41,46.67C158.79,133.75,150.53,92.33,169.05,81.47Zm-10.2,76a3.5,3.5,0,0,0,2.68,2.31v20.42a52.31,52.31,0,0,0,2.33,15.46,40.92,40.92,0,0,1-37,23.35h-1.09a41.06,41.06,0,0,1-41-41V159c42.18-10.35,56.54-32.87,60.79-42.21a50.56,50.56,0,0,1,5.5,3.89A176.87,176.87,0,0,0,158.85,157.5Zm-74-30.91c9.7-19.28,24.45-29,43.82-29,8.93.06,16.31,1.3,22.5,3.74a79.22,79.22,0,0,0-.56,10.4,59.67,59.67,0,0,0-5.23-3.06,3.48,3.48,0,0,0-5,2.19c-.09.3-8.58,29.8-58.32,41.63C82.3,145.91,83,133.74,84.85,126.59ZM71.33,189.51a1.49,1.49,0,0,0,0-.21,228.14,228.14,0,0,1,3.65-32,3.43,3.43,0,0,0,1.21,2.22,3.5,3.5,0,0,0,1.57.74V178a47.94,47.94,0,0,0,20.65,39.4v9.39h-3a60.41,60.41,0,0,0-11.21,1l-.16,0a60,60,0,0,0-15.08,5C68.67,220,69.4,206.92,71.33,189.51ZM113.84,301.4v25.35a15.72,15.72,0,0,0,.42,3.58H106.9c-5.06,0-8.2-1.6-12.54-3.8-.79-.4-1.59-.81-2.44-1.22-5.91-2.9-13.68-6.07-28.21-7.19H49.31a7.65,7.65,0,0,1-7.63-7.64V287.56a53.58,53.58,0,0,1,25.78-45.89c.63-.39,1.27-.76,1.92-1.12l.63-.34c.44-.24.89-.47,1.34-.7l.74-.36c.43-.21.86-.41,1.3-.6.24-.11.49-.23.74-.33.47-.21,1-.4,1.43-.59l.61-.25,2.07-.75.28-.09c.61-.2,1.21-.39,1.83-.56l.71-.2.93-.25a41,41,0,0,0,39.85,30.83h2A66.34,66.34,0,0,0,113.84,301.4Zm196,25.35a8.83,8.83,0,0,1-8.82,8.82H283.34l-.23,0c-18.09,1.43-26.63,5.76-33.5,9.24-4.83,2.45-8.33,4.23-14,4.26a4.34,4.34,0,0,0-.51,0H193.38c-5.69,0-9.2-1.78-14.06-4.24-6.89-3.5-15.47-7.85-33.76-9.27h-15.9a8.83,8.83,0,0,1-8.82-8.82V301.4a59.89,59.89,0,0,1,59.82-59.82h4a29,29,0,0,0,28.69,25h2a29,29,0,0,0,28.68-25h6A59.89,59.89,0,0,1,309.8,301.4Zm78.1-18.28a7.65,7.65,0,0,1-7.64,7.64H364.83a2.63,2.63,0,0,0-.56,0h-.12l-1.56.14-1.4.13-1.54.18-1.26.15-1.45.21-1.16.17c-.5.08-1,.17-1.44.26l-1,.17c-.49.09-.94.19-1.41.29l-.87.18-1.36.33-.76.18-1.37.37-.62.17-1.38.42-.47.14-1.37.47-.37.12c-.51.18-1,.37-1.49.56l-.13.05c-.47.18-.92.36-1.36.55l-.17.06-1.32.57-.12.06c-.34.15-.67.3-1,.46l-.37.16-2.44,1.2-.09,0-1.19.6c-4.36,2.21-7.5,3.81-12.59,3.81h-4.38c0-.52.08-1.05.08-1.58V301.4a66.46,66.46,0,0,0-11.24-37H307a40.93,40.93,0,0,0,39.9-31,53.72,53.72,0,0,1,41,52.2Z"/>
      </g>
    </g>
  </g>
</svg>
