<svg xmlns="http://www.w3.org/2000/svg" viewBox="0 0 430 430">
  <defs>
    <style>
      .cls-1 {
        isolation: isolate;
      }

      .cls-2, .cls-6 {
        fill: #f24c00;
      }

      .cls-3, .cls-4 {
        fill: #ebe6ef;
      }

      .cls-4, .cls-6, .cls-7 {
        mix-blend-mode: multiply;
        opacity: 0.5;
      }

      .cls-5, .cls-7 {
        fill: #f9c9c0;
      }

      .cls-8 {
        fill: #090b2e;
      }
    </style>
  </defs>
  <g class="cls-1">
    <g id="Warstwa_1" data-name="Warstwa 1">
      <g>
        <path class="cls-2" d="M302.63,262.33a82.59,82.59,0,0,0-46.25-14.07h-7.62V229a59.57,59.57,0,0,0,25.65-47l1.35-32.87h0a27.53,27.53,0,0,0,11.85-8.42,38.22,38.22,0,0,0,7.4-13.42q1.26,5.12,2.25,10.33C302.13,162.94,302.77,223.54,302.63,262.33Z"/>
        <path class="cls-2" d="M295,127.32h0a38.22,38.22,0,0,1-7.4,13.42,27.53,27.53,0,0,1-11.85,8.42h0l-.3.1a183.11,183.11,0,0,0-7.75-17.71c-5.64-11.3-14.09-25.51-24.56-34.84a229.07,229.07,0,0,1,28.66,5.11l4.47-18.1C285.21,96.15,291.11,111.37,295,127.32Z"/>
        <path class="cls-2" d="M237.31,96.09c-11.48,19.89-54,42.1-83.2,51.54-2.51.81-4.92,1.52-7.2,2.13-6.81,1.83-12.49,2.73-16.32,2.46.57-5.6,1.24-10.53,2-14.56,3.77-19.59,10.09-38.77,20.9-53.84l4.45,18A249.27,249.27,0,0,1,215.16,95C223,95,230.47,95.43,237.31,96.09Z"/>
        <path class="cls-2" d="M181,248.26h-7.64a82.71,82.71,0,0,0-46.14,14c-.11-32.6.33-80.56,3.35-110,3.83.27,9.51-.63,16.32-2.46,2.28-.61,4.69-1.32,7.2-2.13L155.27,182a59.4,59.4,0,0,0,18.16,40.8,60.65,60.65,0,0,0,7.5,6.16l.08.06V248C181,248.05,181,248.16,181,248.26Z"/>
        <path class="cls-3" d="M215.18,295.82v99.41h-.3a153.9,153.9,0,0,1-59.12-11.8l-.2-.08a89.45,89.45,0,0,0-24.07-6.26L104,373.92A15,15,0,0,1,90.68,359V331.26a83,83,0,0,1,83-83h7.64C181.68,266.9,215.18,295.82,215.18,295.82Z"/>
        <path class="cls-3" d="M339.68,331.26V359a15,15,0,0,1-13.28,14.9l-29,3.36a85.26,85.26,0,0,0-23.07,6,153.91,153.91,0,0,1-59.11,11.92V295.82s33.51-28.92,33.87-47.56h7.63a83,83,0,0,1,83,83Z"/>
        <path class="cls-4" d="M241.9,392.81A153.43,153.43,0,0,1,215,395.23V295.82S219.37,392.81,241.9,392.81Z"/>
        <path class="cls-5" d="M248.76,229v19.27h0c-.36,18.64-33.87,47.56-33.87,47.56S181.38,266.9,181,248.26c0-.1,0-.21,0-.31V229.06a59.68,59.68,0,0,0,67.75-.07Z"/>
        <path class="cls-5" d="M275.76,149.17,274.41,182a59.63,59.63,0,0,1-93.4,47h0l-.08-.05a60.65,60.65,0,0,1-7.5-6.16A59.4,59.4,0,0,1,155.27,182l-1.16-34.41c29.22-9.44,71.72-31.65,83.2-51.54,2,.19,3.95.4,5.83.63h0c10.47,9.33,18.92,23.54,24.56,34.84a183.11,183.11,0,0,1,7.75,17.71Z"/>
        <path class="cls-6" d="M237.23,96a37.33,37.33,0,0,1-2.79,4.11C220,118.9,181.25,138.78,154,147.57c-1.26.41-2.48.79-3.69,1.14l-.83.24c-.86.24-1.72.47-2.57.68a100,100,0,0,1-14.29,2.57,0,0,0,0,1-.05,0,20.19,20.19,0,0,1-2.09,0c.56-5.48,1.21-10.32,2-14.3,51.41-1.21,92.12-32.92,102.76-42l1.55.14Z"/>
        <path class="cls-4" d="M182.23,254.66l-.51.13c-28.16,7.12-54.92,25.71-62.64,38.81-9.48,16.09-7.43,81.21-7.43,81.21l-8-.92a14.77,14.77,0,0,1-2.75-.58,15.06,15.06,0,0,1-6.45-4A15.76,15.76,0,0,1,93.34,368v0c-.22-.29-.43-.59-.62-.9a16.48,16.48,0,0,1-.91-1.65c-.07-.16-.15-.33-.22-.5s-.15-.36-.22-.55-.14-.37-.2-.56c-.13-.38-.24-.77-.34-1.16,0-.19-.09-.38-.13-.57a4.34,4.34,0,0,1-.09-.52c0-.15-.06-.3-.08-.46s0-.42-.07-.64,0-.46,0-.7,0-.45,0-.68V331.21c0-.7,0-1.39,0-2.08,0-.45,0-.89,0-1.33,0-.62.06-1.23.1-1.84q.08-1.35.21-2.7c0-.44.09-.88.14-1.32s.1-.87.15-1.3.11-.87.18-1.3.13-.87.2-1.3c.22-1.43.48-2.84.79-4.24.14-.71.31-1.42.48-2.12.1-.42.21-.84.31-1.25.32-1.25.67-2.49,1-3.71.12-.41.25-.81.39-1.22.39-1.22.81-2.42,1.27-3.61.15-.4.3-.8.46-1.19.29-.74.59-1.47.91-2.2q.76-1.83,1.65-3.6c.18-.38.37-.75.56-1.13s.37-.75.58-1.12.39-.74.59-1.11c.4-.74.82-1.47,1.24-2.19a78,78,0,0,1,5.58-8.33q1.5-2,3.15-3.89c1.1-1.3,2.26-2.56,3.45-3.79l1-1,1-.94,1.21-1.13,1.06-1,.12-.11c.72-.63,1.44-1.26,2.18-1.87l1.16-.94c.51-.4,1-.8,1.54-1.19.27-.22.55-.42.82-.63s.77-.55,1.15-.83l.09-.06c.4-.28.8-.58,1.2-.85l1.24-.84c.83-.55,1.67-1.08,2.52-1.6l1.29-.77,1.56-.89,1.06-.58c.17-.1.35-.19.53-.28s.63-.34.95-.5c.65-.34,1.31-.66,2-1l1.26-.59,1.17-.53.91-.39q2.81-1.2,5.72-2.19a83,83,0,0,1,26.78-4.41H181v0l0,.1,0,.08A22.16,22.16,0,0,0,182.23,254.66Z"/>
        <path class="cls-7" d="M248.75,229l0,0c-.55.85-8.58,12.93-27,19.2A71.76,71.76,0,0,1,201,251.91a91.48,91.48,0,0,0-18.57,2.7l-.22,0a22.16,22.16,0,0,1-1.2-6.22,1.21,1.21,0,0,1,0-.19c0-.1,0-.21,0-.31V229.05a59.78,59.78,0,0,0,33.83,10.51,59.09,59.09,0,0,0,9.28-.73c.75-.11,1.5-.24,2.24-.39l2.22-.48c1.46-.34,2.91-.74,4.33-1.2A59.09,59.09,0,0,0,248.73,229Z"/>
        <path class="cls-6" d="M294.89,127.4c-.08.25-.15.5-.23.75q-.45,1.35-1,2.7c-.24.55-.5,1.1-.77,1.65a36.94,36.94,0,0,1-6.62,9.61l-.27.28c-.41.41-.81.8-1.23,1.19l-.48.42c-.38.33-.76.66-1.15,1-.56.45-1.13.88-1.71,1.28l-.08.05a21.59,21.59,0,0,1-2.34,1.4,19.32,19.32,0,0,1-2.46,1.11c-.26.11-.53.21-.8.3l-.32.1h0a188.79,188.79,0,0,0-10-22.08c-5.33-10-12.61-21.47-21.35-29.57-.32-.31-.64-.6-1-.89l1.67.2c6.9,4.52,18,12.72,23.84,22.06C277.55,133.14,284.73,136.11,294.89,127.4Z"/>
        <path class="cls-8" d="M287.48,319.48h-31a3.5,3.5,0,0,1,0-7h31a3.5,3.5,0,0,1,0,7Z"/>
        <path class="cls-3" d="M286.74,41.6,276.33,83.73l-4.47,18.1a229.07,229.07,0,0,0-28.66-5.11h0c-1.88-.23-3.83-.44-5.83-.63C230.52,95.43,223,95,215.21,95A249.27,249.27,0,0,0,158,101.83l-4.45-18L143.12,41.6s40.72-6.83,71.81-6.83S286.74,41.6,286.74,41.6Z"/>
        <path class="cls-4" d="M259.84,99.2c-4.52-.83-10.1-1.73-16.42-2.48h0c-1.88-.23-3.83-.44-5.83-.63-6.84-.66-14.34-1.1-22.15-1.1a249.27,249.27,0,0,0-57.21,6.84l-4.45-18L143.34,41.6S170,91,197.79,88.21C225.21,85.5,258.89,98.82,259.84,99.2Z"/>
        <path class="cls-8" d="M306.07,260.51c.13-43.25-.73-99.06-5.43-123.51-4.24-22.1-11.16-40.19-20.56-53.84l10.06-40.72a3.49,3.49,0,0,0-2.82-4.29c-.41-.07-41.36-6.88-72.39-6.88s-72,6.81-72.39,6.88a3.5,3.5,0,0,0-2.81,4.29l10,40.57c-9.54,13.76-16.31,31.43-20.65,54-.77,4-1.46,9-2.06,14.86-2.94,28.69-3.46,74.49-3.37,108.55a86.44,86.44,0,0,0-36.85,70.84V359A18.48,18.48,0,0,0,103.2,377.4l27.52,3.17a86.32,86.32,0,0,1,23.17,6l.16.07a156.8,156.8,0,0,0,60.47,12.06h.3a156.62,156.62,0,0,0,60.46-12.19,81.85,81.85,0,0,1,22.12-5.78l29-3.36A18.49,18.49,0,0,0,342.82,359V331.26A86.43,86.43,0,0,0,306.07,260.51Zm-7-4.45a86.06,86.06,0,0,0-42.76-11.3H252.2V230.88a62.86,62.86,0,0,0,25.64-48.7l1.27-30.6a32,32,0,0,0,11.1-8.55,40.37,40.37,0,0,0,3.54-4.82.36.36,0,0,0,0,.11C298.4,162.4,299.12,219.94,299.08,256.06Zm-84.26,35.08c-10.22-9.29-30.37-30.29-30.37-43.19V235.38a63.65,63.65,0,0,0,60.75,0V248C245.2,260.85,225,281.85,214.82,291.14ZM247,226a3.75,3.75,0,0,0-.62.42,56.48,56.48,0,0,1-62.94.24,3.66,3.66,0,0,0-1.2-.82,55.88,55.88,0,0,1-23.58-43.87l-1.07-31.79c27.07-9.19,67.88-29.89,81.44-50.34q1.25.12,2.46.27c9.9,9.15,17.94,23,23,33.06a178.85,178.85,0,0,1,7.59,17.34l0,.1-1.3,31.35A55.91,55.91,0,0,1,247,226Zm44.25-98.8a34,34,0,0,1-6.39,11.33,26,26,0,0,1-7.53,6.18c-1.3-3.24-3.53-8.51-6.59-14.66-4.21-8.43-10.44-19.34-18.16-28.43,11.08,1.75,18.22,3.6,18.35,3.64a3.54,3.54,0,0,0,2.68-.37,3.46,3.46,0,0,0,1.61-2.18l2.5-10.11C283.38,102.12,287.91,113.7,291.29,127.15ZM147.44,44.46c10.73-1.65,42.47-6.19,67.49-6.19s56.77,4.54,67.5,6.19l-9.3,37.66a3.46,3.46,0,0,0-.41,1.63L269.3,97.6a254.16,254.16,0,0,0-54.09-6.11,256.91,256.91,0,0,0-54.65,6.11ZM136,138.33c3.55-18.43,9-33.83,16.09-46l2.54,10.28a3.49,3.49,0,0,0,4.3,2.55,247.93,247.93,0,0,1,56.31-6.72c5.41,0,10.68.22,15.68.58C217,116,181.29,135.15,153,144.3c-2.4.78-4.76,1.48-7,2.08a69.25,69.25,0,0,1-11.5,2.27C134.91,144.68,135.42,141.22,136,138.33Zm-2.27,17.38a71.6,71.6,0,0,0,14.05-2.56c1-.26,2-.55,2.95-.84l1,29.85A62.87,62.87,0,0,0,177.45,231v13.81h-4.13A86.26,86.26,0,0,0,130.66,256C130.63,223.9,131.18,183,133.7,155.71Zm22.84,224.41a93.13,93.13,0,0,0-25-6.5L104,370.45A11.49,11.49,0,0,1,93.82,359V331.26a79.46,79.46,0,0,1,79.5-79.5h4.49c3.23,17.77,27.18,40,33.51,45.65v94.28a149.73,149.73,0,0,1-54.62-11.5ZM335.82,359a11.5,11.5,0,0,1-10.19,11.43l-29,3.36a88.68,88.68,0,0,0-24,6.27,149.54,149.54,0,0,1-54.26,11.6V297.41c6.33-5.62,30.28-27.88,33.51-45.65h4.49a79.1,79.1,0,0,1,44.28,13.47h0a79.44,79.44,0,0,1,35.21,66Z"/>
      </g>
    </g>
  </g>
</svg>
